<?xml version="1.0" standalone="no"?><!DOCTYPE svg PUBLIC "-//W3C//DTD SVG 1.1//EN" "http://www.w3.org/Graphics/SVG/1.1/DTD/svg11.dtd"><svg t="1568921723148" class="icon" viewBox="0 0 1024 1024" version="1.1" xmlns="http://www.w3.org/2000/svg" p-id="2620" xmlns:xlink="http://www.w3.org/1999/xlink" width="200" height="200"><defs><style type="text/css"></style></defs><path d="M747.52 266.24c-3.413333 0-6.826667 0-6.826667-3.413333 0 0-109.226667-58.026667-228.693333-58.026667S283.306667 262.826667 283.306667 262.826667c-6.826667 3.413333-17.066667 0-23.893334-6.826667-3.413333-6.826667 0-17.066667 6.826667-23.893333C273.066667 232.106667 382.293333 170.666667 512 170.666667s238.933333 61.44 245.76 61.44c6.826667 3.413333 10.24 13.653333 6.826667 23.893333-3.413333 6.826667-10.24 10.24-17.066667 10.24z" fill="#f4ea2a" p-id="2621"></path><path d="M187.733333 375.466667C54.613333 375.466667 0 143.36 0 51.2c0-10.24 6.826667-17.066667 17.066667-17.066667 133.12 0 317.44 95.573333 317.44 191.146667 0 10.24-6.826667 17.066667-17.066667 17.066667s-17.066667-6.826667-17.066667-17.066667C300.373333 160.426667 153.6 78.506667 34.133333 68.266667c6.826667 92.16 61.44 273.066667 153.6 273.066666 10.24 0 17.066667 6.826667 17.066667 17.066667s-6.826667 17.066667-17.066667 17.066667z" fill="#f4ea2a" p-id="2622"></path><path d="M119.466667 341.333333c-10.24 0-17.066667-6.826667-17.066667-17.066666v-6.826667c0-92.16 3.413333-201.386667 37.546667-242.346667 6.826667-6.826667 17.066667-10.24 23.893333-3.413333 6.826667 6.826667 10.24 17.066667 3.413333 23.893333-20.48 23.893333-30.72 98.986667-30.72 221.866667v6.826667c0 10.24-6.826667 17.066667-17.066666 17.066666zM512 665.6c-3.413333 0-10.24 0-13.653333-3.413333l-17.066667-17.066667c-3.413333-6.826667-3.413333-13.653333-3.413333-20.48s10.24-10.24 17.066666-10.24h34.133334c6.826667 0 13.653333 3.413333 17.066666 10.24s0 13.653333-3.413333 17.066667l-17.066667 17.066666c-3.413333 6.826667-10.24 6.826667-13.653333 6.826667zM512 887.466667c-102.4 0-102.4-167.253333-102.4-170.666667 0-10.24 6.826667-17.066667 17.066667-17.066667s17.066667 6.826667 17.066666 17.066667c0 27.306667 10.24 136.533333 68.266667 136.533333 47.786667 0 64.853333-102.4 68.266667-136.533333 0-10.24 10.24-17.066667 17.066666-17.066667 10.24 0 17.066667 10.24 17.066667 17.066667 0 17.066667-13.653333 170.666667-102.4 170.666667zM836.266667 375.466667c-10.24 0-17.066667-6.826667-17.066667-17.066667s6.826667-17.066667 17.066667-17.066667c95.573333 0 146.773333-180.906667 153.6-273.066666-119.466667 6.826667-266.24 92.16-266.24 157.013333 0 10.24-6.826667 17.066667-17.066667 17.066667s-17.066667-6.826667-17.066667-17.066667c0-95.573333 184.32-191.146667 317.44-191.146667 10.24 0 17.066667 6.826667 17.066667 17.066667 0 92.16-54.613333 324.266667-187.733333 324.266667z" fill="#f4ea2a" p-id="2623"></path><path d="M938.666667 307.2c-10.24 0-17.066667-6.826667-17.066667-17.066667 0-44.373333-30.72-153.6-64.853333-194.56-6.826667-6.826667-3.413333-17.066667 3.413333-23.893333 6.826667-6.826667 17.066667-3.413333 23.893333 3.413333C921.6 119.466667 955.733333 242.346667 955.733333 290.133333c0 10.24-6.826667 17.066667-17.066666 17.066667zM580.266667 720.213333c-27.306667 0-51.2-6.826667-68.266667-17.066666-23.893333 13.653333-54.613333 20.48-88.746667 17.066666-13.653333 0-47.786667-6.826667-61.44-27.306666-6.826667-6.826667-3.413333-17.066667 3.413334-23.893334 6.826667-6.826667 17.066667-3.413333 23.893333 3.413334 3.413333 3.413333 13.653333 10.24 37.546667 13.653333 23.893333 3.413333 54.613333 0 71.68-17.066667 6.826667-6.826667 17.066667-6.826667 23.893333 0 17.066667 17.066667 51.2 20.48 71.68 17.066667 23.893333-3.413333 34.133333-10.24 37.546667-13.653333 6.826667-6.826667 17.066667-10.24 23.893333-3.413334 6.826667 6.826667 10.24 17.066667 3.413333 23.893334-13.653333 20.48-47.786667 27.306667-61.44 27.306666H580.266667z" fill="#f4ea2a" p-id="2624"></path><path d="M512 989.866667c-276.48 0-443.733333-160.426667-443.733333-273.066667 0-58.026667 13.653333-81.92 23.893333-102.4 10.24-17.066667 20.48-34.133333 20.48-71.68 0-95.573333 81.92-228.693333 85.333333-235.52 3.413333-6.826667 13.653333-10.24 23.893334-6.826667 6.826667 3.413333 10.24 17.066667 6.826666 23.893334 0 0-78.506667 133.12-78.506666 218.453333 0 47.786667-10.24 68.266667-23.893334 88.746667-13.653333 17.066667-23.893333 34.133333-23.893333 85.333333 0 98.986667 160.426667 238.933333 409.6 238.933333 245.76 0 409.6-150.186667 409.6-252.586666 0-51.2-10.24-68.266667-20.48-85.333334-10.24-20.48-23.893333-40.96-23.893333-88.746666 0-85.333333-78.506667-204.8-78.506667-204.8-6.826667-6.826667-3.413333-17.066667 3.413333-23.893334 6.826667-6.826667 17.066667-3.413333 23.893334 3.413334 3.413333 6.826667 85.333333 129.706667 85.333333 225.28 0 40.96 6.826667 54.613333 17.066667 71.68 10.24 20.48 23.893333 44.373333 23.893333 102.4 3.413333 119.466667-170.666667 286.72-440.32 286.72z" fill="#f4ea2a" p-id="2625"></path><path d="M290.133333 648.533333C242.346667 648.533333 204.8 610.986667 204.8 563.2S242.346667 477.866667 290.133333 477.866667s85.333333 37.546667 85.333334 85.333333S337.92 648.533333 290.133333 648.533333z m0-136.533333c-27.306667 0-51.2 23.893333-51.2 51.2S262.826667 614.4 290.133333 614.4s51.2-23.893333 51.2-51.2S317.44 512 290.133333 512z" fill="#f4ea2a" p-id="2626"></path><path d="M307.2 546.133333m-34.133333 0a34.133333 34.133333 0 1 0 68.266666 0 34.133333 34.133333 0 1 0-68.266666 0Z" fill="#f4ea2a" p-id="2627"></path><path d="M733.866667 648.533333c-47.786667 0-85.333333-37.546667-85.333334-85.333333s37.546667-85.333333 85.333334-85.333333 85.333333 37.546667 85.333333 85.333333-37.546667 85.333333-85.333333 85.333333z m0-136.533333c-27.306667 0-51.2 23.893333-51.2 51.2s23.893333 51.2 51.2 51.2 51.2-23.893333 51.2-51.2-23.893333-51.2-51.2-51.2z" fill="#f4ea2a" p-id="2628"></path><path d="M716.8 546.133333m-34.133333 0a34.133333 34.133333 0 1 0 68.266666 0 34.133333 34.133333 0 1 0-68.266666 0Z" fill="#f4ea2a" p-id="2629"></path><path d="M187.733333 887.466667c-10.24 0-17.066667-6.826667-17.066666-17.066667s6.826667-17.066667 17.066666-17.066667C235.52 853.333333 273.066667 815.786667 273.066667 768S235.52 682.666667 187.733333 682.666667c-30.72 0-58.026667 17.066667-75.093333 44.373333-3.413333 6.826667-13.653333 10.24-23.893333 6.826667-6.826667-3.413333-10.24-13.653333-6.826667-23.893334 20.48-37.546667 61.44-61.44 102.4-61.44 68.266667 0 122.88 54.613333 122.88 119.466667S252.586667 887.466667 187.733333 887.466667zM836.266667 887.466667c-64.853333 0-119.466667-54.613333-119.466667-119.466667s54.613333-119.466667 119.466667-119.466667c40.96 0 81.92 23.893333 102.4 61.44 3.413333 6.826667 3.413333 17.066667-6.826667 23.893334-6.826667 3.413333-17.066667 3.413333-23.893333-6.826667-13.653333-27.306667-44.373333-44.373333-75.093334-44.373333-47.786667 0-85.333333 37.546667-85.333333 85.333333S785.066667 853.333333 832.853333 853.333333c10.24 0 17.066667 6.826667 17.066667 17.066667s-3.413333 17.066667-13.653333 17.066667z" fill="#f4ea2a" p-id="2630"></path></svg>